<?xml version="1.0" encoding="UTF-8"?>
<svg xmlns="http://www.w3.org/2000/svg" xmlns:xlink="http://www.w3.org/1999/xlink" width="30pt" height="30pt" viewBox="0 0 30 30" version="1.1">
<g id="surface7719219">
<path style="fill-rule:nonzero;fill:rgb(20.392157%,28.627452%,36.862746%);fill-opacity:1;stroke-width:10;stroke-linecap:butt;stroke-linejoin:round;stroke:rgb(20.392157%,22.745098%,25.098041%);stroke-opacity:1;stroke-miterlimit:10;" d="M 131.858136 74.529542 C 131.858136 88.275133 126.976081 100.883158 118.894622 110.789463 L 153.116403 145.011244 C 154.609459 146.456901 155.22564 148.589838 154.704256 150.604278 C 154.182872 152.595019 152.595019 154.182872 150.604278 154.704256 C 148.589838 155.22564 146.456901 154.609459 145.011244 153.116403 L 110.789463 118.894622 C 100.883158 126.976081 88.275133 131.858136 74.529542 131.858136 C 42.938382 131.858136 17.200948 106.120702 17.200948 74.529542 C 17.200948 42.938382 42.938382 17.200948 74.529542 17.200948 C 106.120702 17.200948 131.858136 42.938382 131.858136 74.529542 Z M 28.671407 74.529542 C 28.671407 99.935186 49.123898 120.411377 74.529542 120.411377 C 99.935186 120.411377 120.411377 99.935186 120.411377 74.529542 C 120.411377 49.123898 99.935186 28.671407 74.529542 28.671407 C 49.123898 28.671407 28.671407 49.123898 28.671407 74.529542 Z M 28.671407 74.529542 " transform="matrix(0.164826,0,0,0.164826,0.825,0.825)"/>
<path style=" stroke:none;fill-rule:nonzero;fill:rgb(20.392157%,22.745098%,25.098041%);fill-opacity:1;" d="M 13.109375 3.660156 C 7.902344 3.660156 3.660156 7.902344 3.660156 13.109375 C 3.660156 18.316406 7.902344 22.558594 13.109375 22.558594 C 15.375 22.558594 17.453125 21.753906 19.085938 20.421875 L 24.726562 26.0625 C 24.964844 26.308594 25.316406 26.410156 25.648438 26.324219 C 25.976562 26.238281 26.238281 25.976562 26.324219 25.648438 C 26.410156 25.316406 26.308594 24.964844 26.0625 24.726562 L 20.421875 19.085938 C 21.753906 17.453125 22.558594 15.375 22.558594 13.109375 C 22.558594 7.902344 18.316406 3.660156 13.109375 3.660156 Z M 13.109375 5.550781 C 17.296875 5.550781 20.671875 8.921875 20.671875 13.109375 C 20.671875 17.296875 17.296875 20.671875 13.109375 20.671875 C 8.921875 20.671875 5.550781 17.296875 5.550781 13.109375 C 5.550781 8.921875 8.921875 5.550781 13.109375 5.550781 Z M 13.109375 5.550781 "/>
</g>
</svg>
