<?xml version="1.0" encoding="UTF-8"?>
<svg xmlns="http://www.w3.org/2000/svg" xmlns:xlink="http://www.w3.org/1999/xlink" width="48pt" height="48pt" viewBox="0 0 48 48" version="1.1">
<g id="surface7714540">
<path style=" stroke:none;fill-rule:nonzero;fill:rgb(20.392157%,22.745098%,25.098041%);fill-opacity:1;" d="M 20 4 L 18 6 L 10 6 C 8.894531 6 8 6.894531 8 8 C 8 9.105469 8.894531 10 10 10 L 38 10 C 39.105469 10 40 9.105469 40 8 C 40 6.894531 39.105469 6 38 6 L 30 6 L 28 4 Z M 10 14 L 10 40 C 10 42.210938 11.789062 44 14 44 L 34 44 C 36.210938 44 38 42.210938 38 40 L 38 14 Z M 10 14 "/>
</g>
</svg>
